<svg width="321" height="396" viewBox="0 0 321 396" fill="none" xmlns="http://www.w3.org/2000/svg">
<path d="M320.084 380.982L300.491 82.223C300.06 75.651 294.604 70.541 288.018 70.541H233.328V62.5C233.328 28.038 205.29 0 170.828 0H149.333C114.871 0 86.833 28.038 86.833 62.5V70.541H32.143C25.557 70.541 20.101 75.651 19.67 82.223L0.0269813 381.709C-0.200019 385.158 1.01298 388.547 3.37698 391.07C5.74098 393.595 9.04298 395.025 12.501 395.025H307.66C307.667 395.025 307.673 395.025 307.68 395.025C314.583 395.025 320.18 389.429 320.18 382.525C320.178 382.004 320.147 381.488 320.084 380.982ZM111.832 62.5C111.832 41.822 128.654 25 149.332 25H170.827C191.505 25 208.327 41.822 208.327 62.5V70.541H111.832V62.5ZM25.847 370.025L43.849 95.542H86.832V106.696C77.937 111.256 71.832 120.514 71.832 131.178C71.832 146.342 84.168 158.678 99.332 158.678C114.496 158.678 126.832 146.342 126.832 131.178C126.832 120.514 120.727 111.256 111.832 106.696V95.542H208.327V106.696C199.431 111.256 193.327 120.514 193.327 131.178C193.327 146.342 205.663 158.678 220.827 158.678C235.991 158.678 248.327 146.342 248.327 131.178C248.327 120.514 242.222 111.256 233.327 106.696V95.542H276.31L294.312 370.025H25.847Z" fill="white"/>
</svg>
