<svg width="533" height="95" viewBox="0 0 533 95" fill="none" xmlns="http://www.w3.org/2000/svg">
<g filter="url(#filter0_d_71_105)">
<path d="M119.5 2L99 77H415L434 2H119.5Z" stroke="white" stroke-width="4"/>
<g filter="url(#filter1_d_71_105)">
<path d="M130.05 22.0083L144.288 21.5029C144.625 21.5176 144.793 21.7007 144.793 22.0522L144.222 26.5566C144.193 26.7764 144.142 26.9302 144.068 27.0181C144.01 27.106 143.878 27.1572 143.673 27.1719L139.41 27.3257L136.202 55.3848C136.158 55.7363 135.968 55.9194 135.631 55.9341L131.061 56.0879C130.768 56.0879 130.621 55.9487 130.621 55.6704L133.851 27.5015L129.479 27.6333C129.112 27.6187 128.929 27.4502 128.929 27.1279L129.479 22.5576C129.493 22.2061 129.684 22.0229 130.05 22.0083ZM165.821 22.272L162.064 55.3848C162.005 55.7217 161.822 55.9048 161.515 55.9341L156.988 56.0879C156.666 56.0879 156.505 55.9487 156.505 55.6704L158.131 41.2344L152.55 41.4321L150.968 55.3848C150.924 55.7363 150.733 55.9194 150.396 55.9341L145.87 56.0879C145.548 56.0879 145.387 55.9487 145.387 55.6704L149.166 22.4258C149.225 22.1182 149.415 21.9497 149.737 21.9204L154.154 21.7446C154.535 21.7593 154.725 21.9351 154.725 22.272L153.121 36.2686L158.724 36.0708L160.262 22.4258C160.306 22.1035 160.504 21.9351 160.855 21.9204L165.25 21.7446C165.631 21.7593 165.821 21.9351 165.821 22.272ZM182.74 40.9707L175.907 41.2344L174.874 50.2432L183.29 49.9575C183.67 49.9722 183.861 50.1626 183.861 50.5288L183.29 55.0771C183.26 55.3848 183.07 55.5752 182.718 55.6484L169.205 56.0879C168.883 56.0879 168.722 55.9487 168.722 55.6704L172.523 22.4258C172.582 22.1182 172.772 21.9497 173.094 21.9204L185.135 21.5029C185.501 21.5469 185.685 21.7446 185.685 22.0962L185.135 26.6445C185.091 27.0107 184.901 27.2085 184.564 27.2378L177.489 27.4355L176.544 35.6094L183.312 35.3677C183.692 35.3823 183.883 35.5728 183.883 35.939L183.312 40.4214C183.253 40.7583 183.062 40.9414 182.74 40.9707ZM197.374 56.3296C197.008 56.3296 196.825 56.1538 196.825 55.8022L197.374 51.21C197.433 50.8877 197.623 50.7119 197.945 50.6826C200.23 50.4482 201.739 50.0894 202.472 49.606C203.204 49.1079 203.57 48.1265 203.57 46.6616C203.57 45.1968 203.197 43.2925 202.45 40.9487C201.703 38.5903 201.219 37.0229 201 36.2466C200.296 33.7563 199.945 31.7202 199.945 30.1382C199.945 28.5415 200.201 27.1792 200.714 26.0513C201.227 24.9233 201.959 24.0225 202.911 23.3486C204.757 22.0596 207.24 21.415 210.36 21.415C210.755 21.415 210.953 21.5981 210.953 21.9644L210.36 26.5127C210.301 26.8789 210.118 27.0767 209.811 27.106C206.969 27.2964 205.548 28.1387 205.548 29.6328C205.548 31.0098 206.148 33.7197 207.35 37.7627C208.565 41.791 209.173 44.6768 209.173 46.4199C209.173 53.0264 205.24 56.3296 197.374 56.3296ZM233.98 22.272L230.223 55.3848C230.165 55.7217 229.981 55.9048 229.674 55.9341L225.147 56.0879C224.825 56.0879 224.664 55.9487 224.664 55.6704L226.29 41.2344L220.709 41.4321L219.127 55.3848C219.083 55.7363 218.893 55.9194 218.556 55.9341L214.029 56.0879C213.707 56.0879 213.546 55.9487 213.546 55.6704L217.325 22.4258C217.384 22.1182 217.574 21.9497 217.896 21.9204L222.313 21.7446C222.694 21.7593 222.884 21.9351 222.884 22.272L221.28 36.2686L226.883 36.0708L228.421 22.4258C228.465 22.1035 228.663 21.9351 229.015 21.9204L233.409 21.7446C233.79 21.7593 233.98 21.9351 233.98 22.272ZM244.967 56.3296C242.506 56.3296 240.646 55.5972 239.386 54.1323C238.126 52.6675 237.496 50.8364 237.496 48.6392C237.496 43.0435 238.06 37.5137 239.188 32.0498C240.082 27.7578 241.319 24.8867 242.901 23.4365C244.396 22.0889 246.366 21.415 248.812 21.415C251.273 21.415 253.133 22.1548 254.393 23.6343C255.667 25.1138 256.305 26.9375 256.305 29.1055C256.305 31.2588 256.166 33.8735 255.887 36.9497C255.609 40.0112 255.265 42.5747 254.854 44.6401C254.444 46.6909 254.093 48.1924 253.8 49.1445C253.521 50.082 253.133 51.0342 252.635 52.001C252.137 52.9678 251.559 53.7441 250.899 54.3301C249.42 55.6631 247.442 56.3296 244.967 56.3296ZM245.538 51.144C247.398 51.144 248.592 49.4302 249.12 46.0024C249.471 43.7319 249.823 40.9048 250.174 37.521C250.526 34.1372 250.702 31.7568 250.702 30.3799C250.702 29.0029 250.475 28.0288 250.021 27.4575C249.581 26.8862 248.951 26.6006 248.131 26.6006C246.432 26.6006 245.282 28.3218 244.681 31.7642C244.33 33.7856 243.978 36.5322 243.626 40.0039C243.275 43.4609 243.099 45.8999 243.099 47.3208C243.099 48.7417 243.326 49.7378 243.78 50.3091C244.249 50.8657 244.835 51.144 245.538 51.144ZM273.927 40.9707L267.093 41.2344L266.061 50.2432L274.476 49.9575C274.857 49.9722 275.047 50.1626 275.047 50.5288L274.476 55.0771C274.447 55.3848 274.256 55.5752 273.905 55.6484L260.392 56.0879C260.069 56.0879 259.908 55.9487 259.908 55.6704L263.709 22.4258C263.768 22.1182 263.958 21.9497 264.281 21.9204L276.322 21.5029C276.688 21.5469 276.871 21.7446 276.871 22.0962L276.322 26.6445C276.278 27.0107 276.087 27.2085 275.75 27.2378L268.675 27.4355L267.73 35.6094L274.498 35.3677C274.879 35.3823 275.069 35.5728 275.069 35.939L274.498 40.4214C274.439 40.7583 274.249 40.9414 273.927 40.9707ZM288.561 56.3296C288.194 56.3296 288.011 56.1538 288.011 55.8022L288.561 51.21C288.619 50.8877 288.81 50.7119 289.132 50.6826C291.417 50.4482 292.926 50.0894 293.658 49.606C294.391 49.1079 294.757 48.1265 294.757 46.6616C294.757 45.1968 294.383 43.2925 293.636 40.9487C292.889 38.5903 292.406 37.0229 292.186 36.2466C291.483 33.7563 291.131 31.7202 291.131 30.1382C291.131 28.5415 291.388 27.1792 291.9 26.0513C292.413 24.9233 293.146 24.0225 294.098 23.3486C295.943 22.0596 298.426 21.415 301.546 21.415C301.942 21.415 302.14 21.5981 302.14 21.9644L301.546 26.5127C301.488 26.8789 301.305 27.0767 300.997 27.106C298.155 27.2964 296.734 28.1387 296.734 29.6328C296.734 31.0098 297.335 33.7197 298.536 37.7627C299.752 41.791 300.36 44.6768 300.36 46.4199C300.36 53.0264 296.427 56.3296 288.561 56.3296ZM306.798 22.0083L321.036 21.5029C321.373 21.5176 321.542 21.7007 321.542 22.0522L320.97 26.5566C320.941 26.7764 320.89 26.9302 320.816 27.0181C320.758 27.106 320.626 27.1572 320.421 27.1719L316.158 27.3257L312.95 55.3848C312.906 55.7363 312.716 55.9194 312.379 55.9341L307.809 56.0879C307.516 56.0879 307.369 55.9487 307.369 55.6704L310.599 27.5015L306.227 27.6333C305.86 27.6187 305.677 27.4502 305.677 27.1279L306.227 22.5576C306.241 22.2061 306.432 22.0229 306.798 22.0083ZM330.221 56.3296C327.76 56.3296 325.899 55.5972 324.64 54.1323C323.38 52.6675 322.75 50.8364 322.75 48.6392C322.75 43.0435 323.314 37.5137 324.442 32.0498C325.335 27.7578 326.573 24.8867 328.155 23.4365C329.649 22.0889 331.62 21.415 334.066 21.415C336.527 21.415 338.387 22.1548 339.647 23.6343C340.921 25.1138 341.559 26.9375 341.559 29.1055C341.559 31.2588 341.419 33.8735 341.141 36.9497C340.863 40.0112 340.519 42.5747 340.108 44.6401C339.698 46.6909 339.347 48.1924 339.054 49.1445C338.775 50.082 338.387 51.0342 337.889 52.001C337.391 52.9678 336.812 53.7441 336.153 54.3301C334.674 55.6631 332.696 56.3296 330.221 56.3296ZM330.792 51.144C332.652 51.144 333.846 49.4302 334.374 46.0024C334.725 43.7319 335.077 40.9048 335.428 37.521C335.78 34.1372 335.956 31.7568 335.956 30.3799C335.956 29.0029 335.729 28.0288 335.274 27.4575C334.835 26.8862 334.205 26.6006 333.385 26.6006C331.686 26.6006 330.536 28.3218 329.935 31.7642C329.583 33.7856 329.232 36.5322 328.88 40.0039C328.529 43.4609 328.353 45.8999 328.353 47.3208C328.353 48.7417 328.58 49.7378 329.034 50.3091C329.503 50.8657 330.089 51.144 330.792 51.144ZM363.861 55.4727C363.861 55.7656 363.663 55.9121 363.268 55.9121L358.324 56.0879C358.104 56.0732 357.943 55.9341 357.84 55.6704L352.325 41.6958L350.787 55.3848C350.743 55.7363 350.56 55.9194 350.238 55.9341L345.646 56.0879C345.323 56.0586 345.162 55.9194 345.162 55.6704L348.963 22.6016C348.993 22.3379 349.059 22.1621 349.161 22.0742C349.264 21.9717 350.04 21.8618 351.49 21.7446C352.94 21.6128 354.874 21.5469 357.291 21.5469C359.708 21.5469 361.568 22.1914 362.872 23.4805C364.19 24.7549 364.85 26.4028 364.85 28.4243C364.85 30.4458 364.608 32.2329 364.125 33.7856C363.641 35.3237 362.843 36.708 361.729 37.9385C360.616 39.1689 359.225 40.0845 357.555 40.6851L363.795 55.209C363.839 55.2969 363.861 55.3848 363.861 55.4727ZM354.017 26.6665L352.787 37.5869C355.497 37.4258 357.364 36.1953 358.39 33.8955C358.946 32.6357 359.225 31.3613 359.225 30.0723C359.225 28.7686 358.954 27.8604 358.412 27.3477C357.884 26.8203 357.115 26.5566 356.104 26.5566C355.094 26.5566 354.398 26.5933 354.017 26.6665ZM381.856 40.9707L375.023 41.2344L373.99 50.2432L382.406 49.9575C382.787 49.9722 382.977 50.1626 382.977 50.5288L382.406 55.0771C382.376 55.3848 382.186 55.5752 381.834 55.6484L368.321 56.0879C367.999 56.0879 367.838 55.9487 367.838 55.6704L371.639 22.4258C371.698 22.1182 371.888 21.9497 372.21 21.9204L384.251 21.5029C384.618 21.5469 384.801 21.7446 384.801 22.0962L384.251 26.6445C384.208 27.0107 384.017 27.2085 383.68 27.2378L376.605 27.4355L375.66 35.6094L382.428 35.3677C382.809 35.3823 382.999 35.5728 382.999 35.939L382.428 40.4214C382.369 40.7583 382.179 40.9414 381.856 40.9707ZM406.839 21.2612L403.565 45.8486C403.521 46.2148 403.338 46.4053 403.016 46.4199L399.171 46.5737C398.849 46.5591 398.688 46.4053 398.688 46.1123L401.039 21.3931C401.053 21.0854 401.244 20.9097 401.61 20.8657L406.29 20.7119C406.656 20.7266 406.839 20.9097 406.839 21.2612ZM400.072 56.2417C399.12 56.2417 398.343 55.9414 397.743 55.3408C397.157 54.7256 396.864 53.9492 396.864 53.0117C396.864 52.0596 397.252 51.21 398.028 50.4629C398.805 49.7158 399.669 49.3423 400.621 49.3423C401.588 49.3423 402.364 49.6426 402.95 50.2432C403.536 50.8438 403.829 51.6274 403.829 52.5942C403.829 53.5464 403.441 54.396 402.665 55.1431C401.888 55.8755 401.024 56.2417 400.072 56.2417Z" fill="#ECECEC"/>
</g>
</g>
<defs>
<filter id="filter0_d_71_105" x="88.3799" y="0" width="356.19" height="95" filterUnits="userSpaceOnUse" color-interpolation-filters="sRGB">
<feFlood flood-opacity="0" result="BackgroundImageFix"/>
<feColorMatrix in="SourceAlpha" type="matrix" values="0 0 0 0 0 0 0 0 0 0 0 0 0 0 0 0 0 0 127 0" result="hardAlpha"/>
<feOffset dy="8"/>
<feGaussianBlur stdDeviation="4"/>
<feComposite in2="hardAlpha" operator="out"/>
<feColorMatrix type="matrix" values="0 0 0 0 0 0 0 0 0 0 0 0 0 0 0 0 0 0 0.25 0"/>
<feBlend mode="normal" in2="BackgroundImageFix" result="effect1_dropShadow_71_105"/>
<feBlend mode="normal" in="SourceGraphic" in2="effect1_dropShadow_71_105" result="shape"/>
</filter>
<filter id="filter1_d_71_105" x="124.929" y="20.7119" width="285.91" height="43.6177" filterUnits="userSpaceOnUse" color-interpolation-filters="sRGB">
<feFlood flood-opacity="0" result="BackgroundImageFix"/>
<feColorMatrix in="SourceAlpha" type="matrix" values="0 0 0 0 0 0 0 0 0 0 0 0 0 0 0 0 0 0 127 0" result="hardAlpha"/>
<feOffset dy="4"/>
<feGaussianBlur stdDeviation="2"/>
<feComposite in2="hardAlpha" operator="out"/>
<feColorMatrix type="matrix" values="0 0 0 0 0 0 0 0 0 0 0 0 0 0 0 0 0 0 0.25 0"/>
<feBlend mode="normal" in2="BackgroundImageFix" result="effect1_dropShadow_71_105"/>
<feBlend mode="normal" in="SourceGraphic" in2="effect1_dropShadow_71_105" result="shape"/>
</filter>
</defs>
</svg>
